inDegrees=no
num_controls=7
num_derivatives=13
num_iterations=187
num_multipliers=7
num_parameters=0
num_slacks=7
num_states=26
objective=0.494525
objective_accelerations=0.046666
objective_balance=0.003741
objective_effort=0.042773
objective_height=0.395589
objective_ligament=0.005756
solver_duration=2135.960915
status=Solve_Succeeded
success=true
DataType=double
version=3
OpenSimVersion=4.5
endheader
time	/jointset/ground_pelvis/pelvis_tilt/value	/jointset/ground_pelvis/pelvis_tx/value	/jointset/ground_pelvis/pelvis_ty/value	/jointset/hip_r/hip_flexion_r/value	/jointset/hip_r/hip_adduction_r/value	/jointset/hip_r/hip_rotation_r/value	/jointset/back/lumbar_extension/value	/jointset/patellofemoral_r/patellar_flexion_r/value	/jointset/knee_r/knee_flexion_r/value	/jointset/knee_r/knee_adduction_r/value	/jointset/knee_r/knee_rotation_r/value	/jointset/ankle_r/ankle_angle_r/value	/jointset/subtalar_r/subtalar_angle_r/value	/jointset/ground_pelvis/pelvis_tilt/speed	/jointset/ground_pelvis/pelvis_tx/speed	/jointset/ground_pelvis/pelvis_ty/speed	/jointset/hip_r/hip_flexion_r/speed	/jointset/hip_r/hip_adduction_r/speed	/jointset/hip_r/hip_rotation_r/speed	/jointset/back/lumbar_extension/speed	/jointset/patellofemoral_r/patellar_flexion_r/speed	/jointset/knee_r/knee_flexion_r/speed	/jointset/knee_r/knee_adduction_r/speed	/jointset/knee_r/knee_rotation_r/speed	/jointset/ankle_r/ankle_angle_r/speed	/jointset/subtalar_r/subtalar_angle_r/speed	/forceset/tau_hip_flexion_r	/forceset/tau_hip_adduction_r	/forceset/tau_hip_rotation_r	/forceset/tau_knee_flexion_r	/forceset/tau_ankle_angle_r	/forceset/tau_subtalar_angle_r	/forceset/tau_lumbar_extension	lambda_cid13_p0	lambda_cid14_p0	lambda_cid14_p1	lambda_cid14_p2	lambda_cid14_p3	lambda_cid14_p4	lambda_cid14_p5	/jointset/ground_pelvis/pelvis_tilt/accel	/jointset/ground_pelvis/pelvis_tx/accel	/jointset/ground_pelvis/pelvis_ty/accel	/jointset/hip_r/hip_flexion_r/accel	/jointset/hip_r/hip_adduction_r/accel	/jointset/hip_r/hip_rotation_r/accel	/jointset/back/lumbar_extension/accel	/jointset/patellofemoral_r/patellar_flexion_r/accel	/jointset/knee_r/knee_flexion_r/accel	/jointset/knee_r/knee_adduction_r/accel	/jointset/knee_r/knee_rotation_r/accel	/jointset/ankle_r/ankle_angle_r/accel	/jointset/subtalar_r/subtalar_angle_r/accel	gamma_cid13_p0	gamma_cid14_p0	gamma_cid14_p1	gamma_cid14_p2	gamma_cid14_p3	gamma_cid14_p4	gamma_cid14_p5
1	-0.289231673475376	-0.00191001509090195	0.6616229551755336	1.444695734053453	-0.2468589841756544	0.03490055438044894	-0.436331555945749	1.395463134891982	1.395463134891994	0.02672095084101163	0.1745148680929965	0.4363113357072781	0.08330018360129395	7.23453488423745e-05	0.003106881763293535	0.01573212913014373	-0.04164108997369208	-0.0001764880797135438	-0.01292663695336999	8.231368773864659e-05	-0.04836058610926548	-0.04836058610926686	7.208573372837986e-05	-0.0001268357170029704	-0.008744727455863617	-0.003104759467986785	-0.2764531113071945	0.02150549583106295	0.01835448942514753	-0.5104816034533577	0.005182600289756548	-0.004452588161741409	0.2966940731025629	-0.04425562149279764	-48.17766059160699	-11.84575087773528	4.034945954325898	17.77462252137535	-803.3439750158764	54.44274470384783	1.293404755285417	0.07524427152116853	1.790094154202035	-5.476604395419638	-0.03297791246232384	-1.212370824456828	0.0346956819811045	-5.289859725544995	-5.289859725545134	0.2381515180344201	0.001509072757071352	-1.34811001513007	-0.5065070712220041	6.306871826073259e-10	-2.221845065575252e-09	1.016111998762361e-08	7.773443510309702e-09	4.485952164301145e-09	-2.733653834505079e-09	9.336623881298198e-09
1.01	-0.2891673286144037	-0.001875070570203419	0.6618696128978657	1.444006621905161	-0.2468622932296099	0.0347113788518713	-0.4363268515619284	1.394715240748194	1.394715240748191	0.02673405627133228	0.1745132796712967	0.4361566448215067	0.08324403614471027	0.01275791362879141	0.003896260532660805	0.03359567690125027	-0.09615838094351704	-0.0004865639400246325	-0.02490672985280971	0.0009982879381854588	-0.1012231293475015	-0.1012231293474984	0.002554299862434682	-0.0001864757909775164	-0.02218249245198475	-0.008121722207615934	-0.2772749957054509	0.02164020426399754	0.01836378937779586	-0.5098326305037771	0.004558784713876318	-0.004388162159148449	0.2975264557990763	-0.04426129769225053	-48.38619754295671	-11.84801104302563	4.028141061415917	17.72855522518799	-803.6917222625963	54.38232235925934	1.250326369280981	0.08292129567525146	1.783923009304605	-5.435847320290215	-0.03020559801998529	-1.190568433409976	0.1410070251072718	-5.285184908797965	-5.285184908797193	0.2540534686979928	-0.009040222854556699	-1.339967617466493	-0.4988337158315526	1.397179731061313e-09	-2.657406655934588e-09	2.449609166863635e-08	1.456226448290646e-08	4.463149151040455e-09	-6.531647277228368e-09	2.595210331395486e-08
1.02	-0.2889772893696438	-0.00183180493860508	0.6622947936820569	1.442773025672671	-0.246868739677209	0.03440245441215506	-0.4363087956898832	1.393438574514856	1.393438574514835	0.02677214326462127	0.1745112269137846	0.4358679047106446	0.08313781049263068	0.02521122210599288	0.004771103943255027	0.0514367415019442	-0.1505379068143943	-0.0008039668085164447	-0.03687641918114696	0.002752611329860379	-0.1541150040191401	-0.1541150040191312	0.005068398327511698	-0.0002197028801443106	-0.03555457247264054	-0.01312039856717332	-0.2780968801036816	0.02177491269693532	0.01837308933045081	-0.5091836575541953	0.003934969137994002	-0.004323736156551242	0.2983588384956146	-0.04427526438759825	-48.60444910791145	-11.84937593179489	4.018227970252418	17.7055982992692	-804.1954319873394	54.32985760337468	1.246952794735899	0.09233719976656241	1.78559752011951	-5.44905137563009	-0.03444331409847189	-1.210290110236334	0.2023655102265375	-5.29572601222549	-5.295726012225377	0.2445283853085655	0.006791669718629078	-1.334973020036997	-0.5028497952076557	2.132315740367303e-09	-2.218729092453298e-09	3.716001268192037e-08	2.16055207512746e-08	2.81688742736166e-09	-9.372955867922713e-09	4.073794527514095e-08
1.03	-0.288663953132725	-0.001779362098672179	0.6628982158562678	1.440996495371662	-0.2468783547003078	0.03397390704067498	-0.4362689864109947	1.391632839470948	1.391632839470915	0.02683549673893295	0.1745089200974076	0.4354456798165663	0.08298174395158572	0.03740748687091631	0.005731907112213044	0.06923801203707654	-0.2047255691763388	-0.001116291203375142	-0.04882771971895438	0.005353994034682263	-0.2070373273799123	-0.2070373273799082	0.00760602242826792	-0.000242551720647656	-0.04888894335605496	-0.01808498726468177	-0.2785698893829819	0.02188957534162037	0.01840142822024317	-0.5083646325116498	0.003565412080000791	-0.004288650490463662	0.2989287304352654	-0.04430077890680033	-48.72068534064885	-11.84384666938094	4.005188781780484	17.62502419448938	-804.33980554101	54.26436897698058	1.198683222982023	0.1001185565209537	1.775937166673841	-5.39723562263447	-0.02920940048568543	-1.186750932242298	0.3107370882452184	-5.291284468491748	-5.291284468492517	0.2589424351921956	-0.006947978983789746	-1.33245199525888	-0.4920636150404253	2.86713178498811e-09	-1.771130721279752e-09	4.980688215777857e-08	2.865137329817101e-08	1.154059798474508e-09	-1.220450236829023e-08	5.550511746620999e-08
1.04	-0.2882301102670343	-0.001716877890837608	0.6636793598051226	1.438679366055801	-0.2468910094470168	0.03342600648247974	-0.4361988208175183	1.389297721399334	1.389297721399291	0.02692433905679988	0.1745063598290167	0.4348901546390996	0.08277627148196201	0.04931254786029671	0.006779377523589089	0.08698109643075778	-0.2586577097845984	-0.001411911530479195	-0.06074705652433619	0.00882387424491099	-0.2599916095602316	-0.2599916095602316	0.01016616703834643	-0.0002703932831085598	-0.06221462915007846	-0.02300158428291068	-0.2790428986622945	0.02200423798630534	0.01842976711002561	-0.5075456074691049	0.003195855022009065	-0.00425356482437601	0.2994986223749045	-0.04433417528428983	-48.84672182347969	-11.83746744147327	3.98908325089442	17.5665255207965	-804.6421928243084	54.20696645133413	1.188712039627295	0.1096706482501652	1.77396029182929	-5.39794702489312	-0.03110250054754773	-1.203897363751216	0.3760650113078354	-5.302117776134909	-5.302117776134653	0.2490324871730272	0.005793125327128871	-1.333236002158818	-0.4932514593517557	3.280953694416018e-09	-1.346812960659775e-09	6.143146828400351e-08	3.406869331753402e-08	-6.340625077847723e-10	-1.450684127425263e-08	6.75372879980047e-08
